<?xml version="1.0" standalone="no"?>
<!DOCTYPE svg PUBLIC "-//W3C//DTD SVG 20010904//EN"
 "http://www.w3.org/TR/2001/REC-SVG-20010904/DTD/svg10.dtd">
<svg version="1.0" xmlns="http://www.w3.org/2000/svg"
 width="3000.000000pt" height="2000.000000pt" viewBox="0 0 3000.000000 2000.000000"
 preserveAspectRatio="xMidYMid meet">

<g transform="translate(0.000000,2000.000000) scale(0.100000,-0.100000)"
fill="#000000" stroke="none">
<path d="M7540 19986 c-14 -8 -83 -35 -155 -61 -71 -26 -139 -51 -150 -56 -28
-11 -276 -78 -360 -97 -38 -9 -72 -18 -75 -21 -3 -3 -14 -7 -25 -7 -11 -1 -31
-4 -45 -7 -35 -8 -184 -37 -190 -37 -3 0 0 -4 6 -8 7 -4 -22 -7 -63 -8 -43 0
-78 -6 -82 -12 -3 -6 -31 -12 -61 -15 l-55 -3 58 -2 c31 -1 57 -6 57 -12 0 -5
-28 -12 -62 -17 l-63 -8 60 -6 c33 -4 5371 -7 11863 -8 l11802 -1 0 200 0 200
-11217 0 c-9361 -1 -11222 -3 -11243 -14z m-850 -286 c0 -5 -8 -10 -17 -10
-15 0 -16 2 -3 10 19 12 20 12 20 0z m77 4 c-3 -3 -12 -4 -19 -1 -8 3 -5 6 6
6 11 1 17 -2 13 -5z m-157 -8 c0 -2 -7 -6 -15 -10 -8 -3 -15 -1 -15 4 0 6 7
10 15 10 8 0 15 -2 15 -4z m168 -13 c-10 -2 -26 -2 -35 0 -10 3 -2 5 17 5 19
0 27 -2 18 -5z"/>
<path d="M6201 19639 c-13 -5 -33 -7 -45 -4 -19 5 -20 5 -3 -5 10 -7 27 -10
38 -7 10 3 19 1 19 -4 0 -5 -8 -9 -17 -10 -10 0 -13 -2 -8 -5 6 -2 37 5 70 16
50 16 55 19 28 19 -17 1 -37 3 -45 5 -7 3 -24 0 -37 -5z"/>
<path d="M6050 19623 c-65 -8 -50 -18 31 -20 43 -1 79 0 79 2 0 2 -10 9 -21
16 -15 8 -19 8 -15 0 5 -7 -3 -11 -21 -10 -25 0 -26 1 -8 9 21 9 13 10 -45 3z"/>
<path d="M5928 19603 c6 -2 18 -2 25 0 6 3 1 5 -13 5 -14 0 -19 -2 -12 -5z"/>
<path d="M5745 19580 c-11 -4 -30 -6 -42 -3 -13 3 -23 0 -23 -5 0 -6 19 -13
43 -15 l42 -4 -42 -1 c-24 -1 -43 -7 -43 -12 0 -6 17 -8 43 -4 33 4 39 3 27
-6 -13 -10 -12 -11 3 -6 10 3 22 6 25 6 4 0 0 5 -8 11 -11 7 -3 9 30 5 l45 -5
-42 11 c-24 6 -43 14 -43 18 0 5 19 6 43 3 23 -3 39 -3 36 0 -10 11 -73 16
-94 7z"/>
<path d="M5590 19560 c-18 -12 -2 -12 25 0 13 6 15 9 5 9 -8 0 -22 -4 -30 -9z"/>
<path d="M5430 19540 c8 -5 24 -10 34 -10 26 0 18 6 -19 14 -22 5 -26 4 -15
-4z"/>
<path d="M5321 19531 c-10 -6 1 -8 30 -4 24 3 46 7 48 9 10 9 -65 3 -78 -5z"/>
<path d="M5520 19530 c0 -5 6 -10 14 -10 8 0 18 5 21 10 3 6 -3 10 -14 10 -12
0 -21 -4 -21 -10z"/>
<path d="M29238 19513 c23 -2 61 -2 85 0 23 2 4 4 -43 4 -47 0 -66 -2 -42 -4z"/>
<path d="M28198 19503 c23 -2 61 -2 85 0 23 2 4 4 -43 4 -47 0 -66 -2 -42 -4z"/>
<path d="M28880 19501 l-85 -6 140 -7 c77 -4 205 -3 285 1 111 6 126 8 64 9
-44 1 -134 4 -200 6 -65 2 -157 1 -204 -3z m203 -8 c-24 -2 -62 -2 -85 0 -24
2 -5 4 42 4 47 0 66 -2 43 -4z"/>
<path d="M29528 19503 c6 -2 18 -2 25 0 6 3 1 5 -13 5 -14 0 -19 -2 -12 -5z"/>
<path d="M29720 19500 l-125 -6 110 -1 c61 0 153 3 205 7 l95 7 -80 -1 c-44 0
-136 -3 -205 -6z"/>
<path d="M4928 19493 c6 -2 18 -2 25 0 6 3 1 5 -13 5 -14 0 -19 -2 -12 -5z"/>
<path d="M5003 19493 c9 -2 23 -2 30 0 6 3 -1 5 -18 5 -16 0 -22 -2 -12 -5z"/>
<path d="M5095 19480 c-16 -7 -17 -9 -3 -9 9 -1 20 4 23 9 7 11 7 11 -20 0z"/>
<path d="M28358 19483 c23 -2 61 -2 85 0 23 2 4 4 -43 4 -47 0 -66 -2 -42 -4z"/>
<path d="M4940 19473 c8 -3 18 -10 21 -15 3 -5 9 -3 12 6 5 12 0 16 -21 15
-16 0 -21 -3 -12 -6z"/>
<path d="M5038 19473 c6 -2 18 -2 25 0 6 3 1 5 -13 5 -14 0 -19 -2 -12 -5z"/>
<path d="M4888 19463 c6 -2 18 -2 25 0 6 3 1 5 -13 5 -14 0 -19 -2 -12 -5z"/>
<path d="M4818 19453 c12 -2 30 -2 40 0 9 3 -1 5 -23 4 -22 0 -30 -2 -17 -4z"/>
<path d="M28168 19453 c6 -2 18 -2 25 0 6 3 1 5 -13 5 -14 0 -19 -2 -12 -5z"/>
<path d="M4168 19413 c7 -3 16 -2 19 1 4 3 -2 6 -13 5 -11 0 -14 -3 -6 -6z"/>
<path d="M26408 19413 c7 -3 16 -2 19 1 4 3 -2 6 -13 5 -11 0 -14 -3 -6 -6z"/>
<path d="M3398 19313 c7 -3 16 -2 19 1 4 3 -2 6 -13 5 -11 0 -14 -3 -6 -6z"/>
<path d="M29976 16013 c-10 -82 -19 -150 -22 -152 -8 -9 -217 101 -359 188
l-148 91 7 -57 c10 -84 60 -224 106 -297 50 -79 135 -159 207 -194 42 -21 50
-28 35 -33 -39 -14 -376 29 -628 82 -78 16 -149 29 -158 29 -31 0 -19 -61 26
-130 41 -63 178 -209 248 -264 56 -44 -234 107 -345 179 l-98 64 6 -102 c16
-287 154 -539 371 -676 28 -17 47 -31 44 -31 -12 0 -184 68 -317 125 -73 31
-136 54 -139 51 -9 -10 45 -136 92 -216 59 -99 123 -170 199 -220 68 -44 168
-80 227 -80 24 0 43 -7 55 -20 17 -18 16 -19 -9 -26 -15 -3 -60 -3 -99 0 -79
8 -306 44 -318 52 -15 9 -18 -13 -7 -55 23 -89 132 -163 293 -197 57 -11 132
-16 257 -17 98 0 177 -1 175 -3 -11 -11 -171 -66 -252 -87 -148 -38 -261 -50
-420 -44 -193 7 -350 45 -497 118 -32 16 -58 25 -58 19 0 -15 34 -81 77 -148
42 -66 131 -162 187 -203 50 -37 35 -43 -82 -37 -65 4 -106 13 -162 35 -41 17
-77 28 -80 26 -9 -9 92 -91 149 -121 105 -56 183 -74 336 -79 115 -4 157 -1
240 16 54 11 101 19 102 17 2 -2 -18 -25 -44 -51 -64 -64 -134 -95 -233 -104
-78 -7 -100 -14 -86 -28 4 -5 78 -8 164 -7 137 1 170 5 256 28 55 15 143 45
195 67 117 50 150 58 179 48 37 -14 48 -51 29 -101 -41 -106 -135 -167 -297
-192 -211 -33 -377 -48 -606 -53 -290 -7 -497 9 -666 52 -25 6 -28 4 -28 -17
0 -14 13 -43 28 -64 82 -113 260 -225 462 -289 30 -10 59 -21 63 -25 5 -4 -13
-15 -39 -24 -66 -22 -171 -21 -236 4 -29 11 -54 20 -55 20 -2 0 -3 -17 -3 -39
0 -110 134 -180 345 -181 212 -2 351 -74 166 -88 -78 -5 -92 -18 -66 -59 9
-13 37 -37 63 -54 25 -16 40 -29 32 -29 -16 0 -390 47 -434 55 -28 5 -28 5
-22 -34 3 -22 9 -47 13 -57 4 -10 -32 9 -88 48 -191 131 -924 641 -949 660
-25 18 -29 18 -460 -52 -239 -39 -613 -100 -831 -135 l-397 -64 -91 -56 c-50
-30 -94 -55 -98 -55 -4 0 -21 13 -38 29 -39 36 -357 369 -413 431 -29 32 -88
74 -175 126 -73 42 -179 105 -237 139 -58 35 -242 142 -410 240 -168 97 -325
190 -350 205 -25 14 -79 46 -120 70 -94 54 -158 92 -285 167 l-100 59 -215 13
c-118 6 -240 14 -270 16 -89 7 -166 12 -952 61 l-747 46 -128 -57 c-70 -32
-157 -71 -193 -87 -60 -28 -236 -107 -720 -323 -319 -143 -735 -329 -1170
-525 -287 -129 -669 -301 -837 -375 l-142 -63 -148 -11 c-81 -6 -292 -20 -468
-31 -176 -11 -594 -38 -930 -59 -335 -22 -803 -52 -1040 -66 l-430 -27 -645
-322 c-914 -457 -1514 -751 -2015 -989 -749 -354 -1242 -571 -1515 -664 -120
-42 -144 -46 -215 -45 -165 3 -676 -123 -1426 -354 -101 -31 -200 -60 -219
-66 -19 -5 -54 -16 -78 -24 -23 -8 -49 -14 -56 -14 -7 0 -46 57 -87 128 -173
301 -324 518 -443 637 -84 83 -125 105 -198 105 -145 -1 -535 -76 -1066 -205
l-224 -55 -104 -77 c-58 -43 -127 -94 -154 -113 -27 -19 -206 -151 -398 -293
l-348 -258 -315 -394 -314 -394 -190 -84 c-104 -47 -309 -138 -455 -202 -1163
-515 -1083 -484 -1255 -484 -150 -1 -179 31 -97 108 49 46 51 47 163 64 581
91 1094 339 1363 657 67 79 132 177 123 186 -3 3 -22 -6 -44 -19 -115 -75
-407 -117 -783 -113 -281 3 -318 11 -222 50 90 37 272 254 272 325 0 21 -6 17
-57 -30 -87 -79 -191 -121 -355 -143 l-37 -5 30 42 c27 40 78 201 67 212 -4 5
-305 -30 -448 -51 l-35 -5 32 18 c44 25 103 81 103 98 0 22 -34 35 -92 35 -30
0 -63 6 -73 14 -18 13 -17 14 11 29 40 21 125 34 264 43 221 13 320 71 320
189 l0 34 -44 -20 c-68 -30 -154 -35 -231 -14 -36 9 -65 20 -65 24 0 4 33 17
73 30 108 35 328 143 440 217 91 61 294 241 283 252 -3 2 -49 -7 -103 -21
-250 -66 -488 -92 -828 -91 -237 0 -302 3 -421 22 -367 57 -524 131 -524 246
0 60 81 63 206 8 119 -53 228 -86 343 -106 94 -16 245 -20 289 -8 45 13 22 27
-55 34 -97 9 -180 48 -243 114 l-45 46 30 -6 c154 -30 228 -38 330 -33 126 7
197 23 298 71 64 29 185 122 174 133 -3 2 -33 -8 -68 -22 -80 -32 -190 -50
-253 -41 l-48 7 44 28 c53 34 120 106 175 186 46 69 97 165 90 172 -3 2 -32
-9 -64 -26 -78 -39 -241 -95 -328 -112 -97 -19 -311 -17 -400 5 -82 19 -172
53 -269 100 -77 37 -75 40 29 51 124 13 283 61 386 116 57 31 158 113 149 122
-3 2 -66 -6 -140 -19 -196 -34 -344 -33 -298 3 7 5 46 14 86 20 177 27 325
150 430 359 42 85 67 152 59 160 -3 3 -27 -6 -54 -19 -73 -37 -287 -124 -398
-162 -11 -4 2 7 29 23 113 69 225 191 283 307 62 124 103 284 103 404 l0 71
-72 -56 c-153 -118 -333 -183 -604 -219 -192 -25 -195 -21 -29 44 271 105 430
183 486 235 33 32 35 39 14 59 -26 27 -153 31 -364 12 -108 -9 -241 -19 -296
-22 l-100 -4 75 41 c195 108 300 236 300 367 0 29 -4 43 -14 43 -7 0 -60 -19
-117 -43 -133 -56 -296 -113 -303 -107 -2 3 -26 213 -53 468 -26 254 -50 462
-53 462 -3 0 -32 -210 -64 -467 -32 -258 -59 -470 -61 -472 -12 -11 -291 141
-447 245 -63 41 -66 37 -44 -71 42 -201 155 -364 309 -441 26 -13 47 -27 47
-31 0 -21 -365 23 -633 77 -184 37 -187 37 -187 4 0 -28 50 -123 75 -144 29
-24 16 -38 -46 -49 l-61 -10 -58 39 -59 40 -3 -43 -3 -42 -75 3 c-89 4 -106
14 -50 31 25 7 65 35 105 72 104 98 174 220 82 145 -24 -20 -64 -44 -88 -55
-43 -19 -148 -41 -198 -41 l-24 0 23 25 c20 22 74 154 66 163 -2 1 -23 -6 -48
-17 -253 -108 -498 -162 -580 -128 -45 19 -47 30 -13 61 28 26 93 46 152 46
91 0 223 59 223 99 0 21 -19 31 -60 31 -38 0 -60 9 -60 25 0 20 43 27 210 34
195 9 234 26 256 115 7 28 6 29 -22 23 -80 -18 -123 -19 -177 -3 -31 9 -57 20
-57 24 0 4 37 17 83 30 123 34 242 95 302 156 28 28 54 61 57 72 5 20 1 21
-156 27 -148 6 -592 38 -728 53 l-58 6 0 -1815 0 -1816 57 -34 c80 -48 176
-95 253 -124 91 -35 241 -81 287 -88 l38 -6 -30 17 c-46 25 -205 125 -205 129
0 2 19 -3 43 -10 23 -7 74 -15 112 -18 39 -3 106 -15 149 -26 44 -12 100 -21
125 -21 25 0 52 -4 60 -9 23 -15 -20 -31 -81 -31 -32 0 -62 -6 -74 -14 -18
-14 -18 -17 -4 -43 9 -15 40 -43 70 -60 30 -18 52 -33 50 -33 -32 0 -384 52
-404 60 -15 5 -38 10 -52 10 -41 0 -140 38 -201 77 -32 20 -88 66 -125 103
l-68 66 0 -5073 0 -5073 15000 0 15000 0 0 8080 c0 4444 -1 8080 -3 8080 -2 0
-11 -66 -21 -147z m-28771 -3268 c6 -6 34 -30 63 -53 30 -23 51 -42 48 -42 -4
0 -51 23 -106 50 l-100 50 16 26 17 25 26 -23 c14 -13 31 -28 36 -33z m-305
-197 c57 -160 163 -301 287 -384 32 -21 62 -42 68 -47 20 -16 -293 108 -395
157 -29 14 -55 26 -57 26 -12 0 3 -49 42 -135 25 -54 42 -102 37 -106 -20 -20
-498 -54 -481 -35 4 4 43 16 88 26 106 26 182 62 220 106 38 42 41 69 8 60
-43 -10 -282 -36 -342 -36 -72 0 -175 16 -188 29 -16 16 2 48 41 75 31 21 49
26 103 26 123 0 272 48 393 127 l71 46 -75 19 c-41 11 -82 26 -90 34 -24 24
-14 28 175 62 28 6 55 10 61 11 6 0 21 -27 34 -61z m130 -648 c64 -57 173
-109 256 -122 38 -5 75 -13 82 -17 31 -14 8 -26 -55 -29 -71 -3 -303 26 -303
38 0 4 7 13 15 20 27 23 16 32 -14 11 -16 -12 -36 -21 -45 -21 -9 0 -29 -8
-43 -17 -22 -15 -53 -18 -158 -20 -101 -2 -124 0 -105 8 105 46 214 106 260
143 30 25 57 45 60 45 3 1 26 -17 50 -39z m-80 -200 c0 -18 72 -91 115 -116
82 -47 182 -66 400 -73 l200 -6 -90 -33 c-106 -39 -235 -76 -242 -69 -2 3 3
17 12 31 20 30 25 30 -95 16 -47 -5 -183 -16 -304 -25 -217 -16 -218 -16 -285
5 -123 40 -161 60 -161 85 0 20 7 24 43 30 126 19 268 75 357 139 38 27 50 31
50 16z m-420 -635 c125 -64 197 -79 365 -79 104 0 173 6 224 17 41 10 77 15
80 11 8 -8 -84 -91 -123 -111 -47 -25 -125 -43 -183 -43 -30 0 -53 -5 -53 -10
0 -19 51 -30 138 -30 148 0 315 35 461 96 150 63 167 68 200 54 61 -25 46
-106 -32 -184 -29 -29 -69 -60 -91 -70 -70 -33 -453 -83 -676 -88 -97 -2 -111
0 -190 30 -92 35 -156 69 -146 79 3 3 32 5 65 4 120 -3 251 30 251 65 0 21
-42 34 -141 45 -47 4 -102 15 -122 24 -79 33 -139 109 -153 194 l-7 41 34 -6
c19 -3 63 -21 99 -39z m-244 -2186 c147 -94 318 -155 459 -166 78 -5 145 -31
145 -55 0 -10 -39 -8 -320 13 -282 22 -431 65 -454 131 -13 38 30 95 77 101
17 2 34 5 38 5 3 1 27 -12 55 -29z m5458 -1296 c15 -76 29 -151 32 -166 6 -28
5 -29 -32 -23 -22 3 -43 5 -47 6 -4 0 -3 9 3 20 13 25 4 25 -53 1 -72 -31 -76
-19 -32 106 21 59 45 127 53 151 10 28 20 42 32 42 14 0 22 -24 44 -137z
m1132 5 c16 -60 32 -108 35 -108 3 0 24 45 45 101 l40 100 39 -141 c21 -77 41
-137 45 -133 3 4 19 41 35 82 32 85 36 83 60 -39 16 -78 34 -132 35 -103 0 6
10 33 21 60 l21 48 11 -30 10 -29 22 49 22 50 8 -37 c4 -21 10 -38 14 -38 3 0
20 43 36 95 17 52 33 95 36 95 3 0 16 -39 29 -87 12 -49 25 -91 29 -95 3 -4
32 60 64 142 57 146 59 150 88 150 16 0 29 -2 29 -4 0 -5 65 -311 76 -356 5
-20 19 8 69 135 l63 160 10 -40 c6 -22 16 -67 23 -100 7 -33 15 -64 19 -68 4
-5 16 12 26 37 21 51 31 57 37 24 3 -19 7 -16 24 22 l21 45 7 -38 c4 -21 10
-35 13 -32 4 3 21 45 38 93 l31 86 23 -112 c13 -62 26 -112 29 -112 3 0 22 42
42 93 l37 92 22 -72 c12 -40 25 -73 29 -73 4 0 13 17 21 38 l13 37 12 -35 13
-35 10 25 c5 14 20 54 33 90 l23 64 35 -162 c19 -89 37 -162 40 -162 3 0 33
70 66 155 l60 155 12 -42 c6 -24 18 -72 26 -108 l14 -65 42 90 c24 50 51 109
62 133 l19 42 764 0 763 0 24 -35 c13 -19 26 -35 29 -35 4 0 12 16 19 35 11
33 15 35 55 35 l43 0 46 -82 46 -82 12 30 c6 16 19 52 28 79 18 50 18 50 65
53 41 3 48 0 53 -17 7 -27 20 -27 28 -1 9 27 23 25 37 -5 6 -14 15 -25 20 -25
5 0 14 11 20 25 9 20 18 25 47 25 32 0 38 -5 55 -41 11 -22 23 -42 27 -45 4
-2 14 15 21 38 13 39 18 43 52 46 30 3 41 -1 53 -17 16 -24 33 -27 33 -7 0 28
19 26 37 -4 17 -29 19 -30 31 -13 13 17 14 17 25 -1 7 -10 20 -28 29 -40 l16
-21 11 28 c6 15 15 38 21 52 7 20 17 25 42 25 35 0 40 -6 105 -133 13 -26 28
-45 32 -43 5 3 16 31 25 63 10 32 22 71 28 86 l11 28 90 -3 90 -3 30 -57 c16
-32 33 -58 37 -58 4 0 18 27 30 60 18 49 27 60 45 60 17 0 27 -13 48 -60 14
-33 30 -60 35 -60 5 0 13 14 18 32 l9 31 20 -41 c22 -47 31 -51 40 -22 10 30
19 25 44 -26 12 -26 26 -43 30 -38 5 5 21 46 36 92 14 45 28 82 30 82 2 0 20
-29 40 -65 20 -36 39 -65 43 -65 4 0 20 32 36 71 l29 70 41 -3 c37 -3 43 -7
65 -48 l25 -44 19 47 19 47 64 0 63 0 37 -70 c20 -39 40 -67 45 -63 4 4 18 35
32 68 l25 60 49 3 c49 3 50 3 68 -37 20 -46 31 -45 41 4 6 31 10 35 38 35 30
0 34 -5 73 -82 l41 -83 24 80 c23 75 26 80 54 83 23 2 33 -3 45 -24 16 -27 17
-27 23 -6 9 27 23 28 31 2 9 -27 19 -25 33 5 20 43 54 33 82 -22 l23 -48 15
48 c14 41 19 47 43 47 21 0 32 -7 42 -27 l14 -27 13 24 13 24 14 -28 c13 -25
16 -26 27 -11 11 16 14 14 30 -19 9 -20 21 -34 25 -31 5 2 14 25 21 50 10 37
17 45 36 45 20 0 31 -15 68 -87 27 -54 46 -82 50 -73 3 8 15 48 26 88 l22 72
62 0 63 0 49 -102 49 -102 19 47 c11 26 22 47 25 47 3 0 30 -41 60 -90 29 -50
57 -92 61 -95 4 -3 16 18 26 45 17 47 34 65 34 38 1 -7 8 0 16 16 l16 28 24
-52 c22 -47 44 -60 44 -25 0 8 5 26 11 42 l10 28 22 -36 c12 -20 45 -80 72
-133 28 -53 52 -96 55 -96 3 0 26 62 50 138 24 75 51 153 58 172 l14 35 18
-35 18 -35 15 35 14 35 37 -75 c20 -41 39 -74 43 -73 4 1 14 21 24 45 l16 43
29 -53 c16 -28 32 -52 36 -52 8 0 88 165 88 181 0 5 5 9 10 9 6 0 10 -3 10 -8
0 -4 29 -61 64 -126 72 -133 67 -133 106 -3 13 42 26 77 30 77 3 0 19 -27 35
-60 15 -32 32 -57 36 -55 3 3 10 21 13 40 9 45 19 44 41 -5 21 -47 32 -50 46
-12 5 15 12 34 15 42 4 10 16 -2 37 -37 18 -29 34 -53 38 -53 3 0 12 14 20 32
l15 31 38 -66 c20 -37 40 -67 44 -67 5 0 17 26 27 58 11 31 33 94 50 140 l31
82 21 -37 c11 -21 42 -78 68 -128 94 -177 127 -235 133 -235 4 0 30 71 58 158
l51 157 30 -59 c16 -33 32 -55 35 -50 4 7 50 152 74 237 3 9 11 17 17 17 7 0
56 -83 110 -185 55 -102 102 -185 106 -185 4 0 25 43 46 95 21 52 42 95 46 95
4 0 10 -8 14 -17 6 -15 9 -13 19 11 12 29 12 28 61 -78 27 -59 52 -109 56
-112 4 -2 15 18 24 46 9 27 20 50 24 50 4 0 20 -27 36 -60 16 -33 32 -60 36
-60 4 0 13 16 20 35 7 19 16 35 19 35 3 0 23 -34 45 -75 22 -41 43 -75 46 -75
3 0 27 67 54 150 l48 149 58 -105 c33 -58 59 -109 59 -115 0 -33 25 13 89 166
41 96 77 175 80 175 4 0 23 -33 44 -72 74 -145 100 -189 108 -181 4 4 35 73
69 153 34 80 65 149 69 153 9 9 27 -18 86 -128 21 -38 60 -112 87 -162 27 -51
53 -95 58 -98 4 -3 29 46 55 107 95 227 106 252 110 256 2 3 34 -56 70 -129
37 -74 70 -137 74 -142 4 -4 24 48 45 115 l38 122 73 -152 c41 -83 76 -160 80
-171 3 -11 12 -24 20 -31 12 -10 18 1 36 62 11 40 34 115 50 166 16 51 29 99
29 107 0 33 18 12 49 -57 18 -40 38 -86 44 -102 l10 -29 13 24 c7 13 13 32 14
42 0 30 15 19 39 -29 12 -26 26 -43 30 -38 5 5 21 41 36 79 15 39 31 74 36 79
9 10 30 -35 32 -71 1 -12 4 -19 6 -17 6 5 41 -53 41 -69 0 -6 9 -23 19 -37
l19 -24 11 39 c5 22 13 52 17 67 3 16 11 25 17 21 5 -3 7 -2 4 3 -3 6 1 39 10
73 l16 64 33 -69 c19 -38 39 -84 45 -102 13 -40 30 -37 42 9 6 21 12 28 15 19
3 -8 11 -21 19 -29 8 -7 12 -19 9 -26 -3 -8 4 -11 17 -10 36 4 37 4 31 20 -4
8 -2 15 2 15 13 0 57 -98 49 -109 -3 -7 0 -8 9 -5 8 3 19 19 25 35 5 16 12 29
15 29 7 0 46 -66 46 -78 0 -8 -8 -9 -23 -3 -13 5 -30 5 -38 1 -9 -5 -63 -14
-122 -20 -59 -6 -113 -13 -120 -15 -6 -2 -57 -9 -112 -15 -89 -9 -214 -33
-255 -48 -8 -3 -20 -6 -26 -7 -6 -2 -24 -10 -40 -18 l-29 -16 60 -1 c33 0 287
5 565 10 l505 11 18 -22 18 -22 15 21 c16 23 22 24 594 13 45 0 45 -1 66 -53
l21 -52 18 53 17 53 242 -6 c326 -8 525 -16 563 -22 22 -3 34 -12 39 -27 l7
-22 8 23 c7 19 16 22 56 22 74 -1 425 -29 431 -35 3 -3 -3 -5 -14 -5 -11 0
-96 -7 -189 -15 -474 -40 -1191 -66 -1950 -68 -297 -1 -517 -5 -490 -8 28 -4
68 -12 90 -17 22 -6 57 -15 79 -21 21 -5 43 -14 49 -20 6 -6 26 -11 43 -11 34
0 58 -19 27 -21 -10 -1 2 -5 27 -9 45 -8 111 -30 120 -41 3 -3 19 -13 35 -22
26 -14 27 -16 8 -17 -12 0 -28 7 -37 15 -8 8 -32 15 -53 15 l-38 0 29 -15 c15
-8 35 -15 42 -15 11 0 14 -36 14 -200 l0 -200 -27 -6 c-46 -10 -53 -13 -53
-24 0 -5 19 -10 43 -11 l42 -1 -40 -9 c-21 -5 -42 -14 -46 -20 -4 -7 -88 -13
-230 -16 -122 -2 -231 -9 -240 -14 -10 -5 -45 -9 -79 -9 -54 0 -209 -23 -327
-48 -24 -5 108 -12 362 -18 568 -13 708 -12 885 9 85 10 226 24 312 32 195 18
205 16 543 -97 209 -69 715 -261 710 -268 -6 -9 -59 -15 -354 -40 -243 -21
-360 -42 -471 -87 -195 -77 -238 -179 -125 -289 108 -104 355 -183 705 -224
64 -7 451 -28 567 -30 13 0 4 -21 -76 -190 -19 -41 -36 -79 -38 -85 -1 -5 -27
-75 -58 -155 -132 -347 -227 -723 -266 -1060 -6 -58 -16 -109 -22 -115 -14
-14 -2 380 18 590 18 193 74 533 110 678 47 185 26 156 -70 -100 -130 -346
-219 -707 -275 -1118 -6 -44 -14 -83 -18 -87 -4 -3 -54 -12 -112 -18 -58 -6
-112 -13 -120 -16 -11 -3 -26 15 -50 59 l-34 63 42 59 c50 70 46 86 -6 27 -21
-23 -40 -42 -43 -42 -4 0 -10 28 -13 63 -24 210 -95 457 -183 635 l-56 113 24
52 c13 29 31 64 41 79 10 15 14 29 9 32 -5 3 -28 -23 -52 -59 -24 -36 -50 -65
-57 -65 -7 0 -11 -4 -7 -10 3 -5 -26 -62 -65 -126 -68 -113 -176 -327 -216
-426 -10 -27 -21 -48 -24 -48 -3 1 -27 35 -54 77 l-49 76 94 91 c52 51 114
108 139 128 24 20 42 39 40 42 -6 5 -141 -61 -212 -104 l-46 -29 45 127 c24
70 47 138 50 152 4 22 2 20 -17 -9 -19 -31 -142 -265 -154 -294 -2 -7 -37 22
-78 63 -95 97 -148 143 -155 136 -3 -3 21 -45 54 -93 33 -48 72 -111 86 -139
l26 -51 -42 -32 c-148 -112 -355 -375 -476 -606 -29 -55 -61 -107 -72 -117
-20 -17 -26 -34 -9 -23 6 3 7 -1 3 -10 -4 -13 -8 -14 -14 -4 -4 7 -15 14 -23
15 -9 1 -14 -1 -11 -6 3 -4 2 -16 -1 -25 -5 -13 -8 -14 -15 -3 -7 10 -9 9 -9
-4 0 -10 9 -27 19 -37 20 -20 19 -21 -24 -144 -34 -98 -99 -334 -128 -472 -11
-51 -6 43 9 157 78 613 276 1198 573 1697 31 51 61 101 66 110 18 31 128 186
152 215 50 60 11 34 -68 -45 -119 -121 -206 -222 -302 -351 -74 -100 -112
-155 -204 -300 -65 -104 -204 -405 -254 -553 -34 -98 -34 -88 -8 90 34 240
110 541 185 743 20 51 34 98 32 103 -4 13 -140 -246 -197 -376 -24 -55 -61
-149 -82 -208 -20 -60 -39 -111 -42 -113 -2 -3 -7 17 -11 43 -17 129 -113 451
-186 628 -39 93 -190 393 -215 427 -20 27 -23 37 40 -137 90 -249 170 -630
200 -954 17 -191 20 -581 4 -768 -26 -324 -96 -689 -190 -995 l-30 -98 -84 0
c-56 0 -85 4 -85 11 0 6 7 9 15 5 21 -8 43 40 118 259 133 392 185 695 174
1014 -7 218 -38 375 -99 511 -11 24 -24 55 -29 69 -19 48 -20 11 -2 -70 22
-107 24 -406 4 -559 -17 -120 -20 -113 -40 85 -22 216 -77 417 -161 590 -27
55 -57 112 -67 128 -17 27 -17 30 11 140 35 138 87 307 122 393 14 36 24 67
21 70 -7 7 -123 -214 -189 -358 -33 -73 -82 -199 -109 -280 -48 -143 -109
-372 -109 -413 -1 -14 -7 -9 -21 19 -18 34 -20 50 -14 115 12 140 66 449 91
516 5 15 4 17 -4 10 -7 -6 -30 -60 -53 -120 -116 -308 -185 -611 -210 -926
l-12 -157 -25 50 c-13 27 -26 47 -28 45 -2 -2 3 -38 11 -81 17 -90 18 -96 7
-96 -5 0 -26 46 -46 103 -21 56 -60 147 -87 202 -27 56 -49 108 -49 115 0 35
75 308 124 455 49 145 165 422 202 485 10 16 4 12 -15 -10 -58 -65 -202 -304
-286 -472 l-82 -168 -29 77 c-16 43 -30 80 -32 84 -1 3 40 44 92 90 53 45 94
84 92 87 -4 4 -144 -67 -189 -95 -48 -31 -48 -3 0 130 23 67 43 124 43 127 -1
12 -56 -85 -124 -220 -63 -122 -81 -150 -118 -177 -23 -17 -68 -55 -98 -85
l-54 -54 -49 59 c-49 58 -131 139 -149 145 -5 2 11 -27 35 -65 25 -37 59 -96
76 -131 l32 -63 -61 -72 c-241 -285 -424 -696 -526 -1182 -18 -85 -22 -97 -18
-50 49 562 197 1101 434 1590 92 190 221 411 310 531 40 54 78 106 84 114 22
30 -80 -66 -133 -125 -30 -33 -75 -82 -101 -110 -61 -66 -193 -238 -267 -350
-115 -174 -227 -392 -305 -595 -73 -192 -69 -184 -62 -115 26 262 128 678 222
913 12 28 20 52 17 52 -7 0 -113 -194 -156 -286 -53 -114 -122 -284 -145 -357
-10 -31 -21 -57 -25 -57 -4 0 -10 21 -14 46 -35 233 -155 578 -306 876 -88
173 -121 217 -74 97 104 -263 194 -674 224 -1027 38 -435 14 -861 -74 -1300
-19 -95 -35 -175 -35 -177 0 -3 -25 -5 -56 -5 -54 0 -56 1 -50 23 147 506 175
911 86 1262 -20 75 -86 233 -94 224 -3 -2 3 -33 12 -69 22 -86 22 -483 0 -610
l-15 -85 -7 80 c-33 366 -113 644 -243 847 -16 26 -16 31 6 125 28 115 87 309
125 408 34 88 23 76 -44 -45 -195 -354 -347 -830 -376 -1181 -11 -129 -25 -90
-19 54 12 297 42 547 89 755 12 56 19 99 15 95 -13 -14 -106 -274 -137 -383
-91 -318 -143 -711 -129 -985 l6 -110 -15 55 c-46 172 -135 406 -185 487 -12
18 -26 73 -35 130 -18 123 -55 259 -95 355 -33 77 -79 161 -85 155 -2 -2 7
-46 20 -98 21 -82 46 -241 46 -291 0 -11 -27 11 -74 60 -75 78 -113 95 -58 25
16 -21 53 -83 82 -138 l53 -100 -6 -135 c-6 -132 -32 -358 -42 -368 -3 -3 -5
2 -5 10 0 33 -73 267 -117 373 -94 231 -239 449 -361 541 l-37 29 20 -30 c120
-184 201 -370 256 -589 11 -44 22 -90 25 -101 3 -11 -11 9 -31 45 -19 35 -42
71 -51 80 -13 13 -12 9 2 -30 9 -25 22 -72 29 -104 l13 -59 -41 -74 -41 -73
-23 27 c-27 33 -28 28 -7 -22 14 -35 14 -40 -6 -83 -12 -25 -36 -89 -55 -144
-38 -113 -38 -113 -56 72 -22 230 1 528 56 748 14 52 23 97 21 99 -6 6 -73
-158 -104 -257 -76 -239 -100 -498 -68 -737 12 -97 6 -123 -12 -50 -33 131
-46 259 -46 467 l-1 215 34 50 c19 27 50 66 69 87 44 49 32 48 -34 -2 -29 -22
-55 -40 -57 -40 -3 0 1 32 9 72 8 39 12 74 10 76 -3 2 -19 -43 -37 -100 -25
-80 -42 -114 -75 -153 -121 -144 -212 -350 -244 -553 -17 -102 -19 -112 -32
-112 -16 0 -3 243 21 400 32 198 78 361 158 555 44 104 51 114 135 198 49 48
86 87 83 87 -17 0 -129 -65 -190 -109 -142 -104 -279 -255 -390 -430 -49 -77
-60 -89 -68 -75 -11 19 -4 136 14 257 11 72 15 81 63 135 28 32 75 78 103 102
29 24 51 45 49 48 -5 4 -102 -44 -138 -69 -14 -11 -29 -19 -32 -19 -16 0 75
214 115 272 34 48 20 43 -37 -12 -75 -74 -163 -207 -209 -318 -20 -50 -48
-101 -61 -113 l-24 -22 -22 29 c-13 16 -35 42 -51 59 -23 26 -22 20 12 -39
l40 -69 -37 -46 c-54 -69 -55 -69 -47 -34 11 52 -1 38 -23 -26 -11 -33 -34
-79 -50 -103 -16 -24 -37 -58 -46 -76 -10 -19 -19 -32 -22 -30 -2 3 7 54 21
114 60 273 61 553 0 844 -47 224 -52 228 -47 30 5 -189 -13 -384 -48 -540
l-20 -85 6 115 c12 283 -46 599 -163 885 -43 106 -74 160 -59 105 21 -81 47
-223 57 -319 l12 -111 -82 -85 c-135 -140 -231 -305 -302 -514 l-39 -116 0 60
c0 151 46 367 100 477 17 33 30 63 30 66 0 16 -58 -52 -105 -123 -135 -204
-194 -454 -182 -765 5 -124 30 -313 53 -407 7 -26 7 -26 -41 -19 -26 4 -53 10
-60 12 -18 7 -22 34 -36 226 -46 614 150 1311 509 1812 34 48 61 90 59 92 -6
6 -172 -169 -259 -273 -97 -117 -210 -287 -281 -426 -45 -87 -57 -104 -61 -85
-20 93 -52 211 -75 281 -34 99 -113 288 -119 283 -2 -3 6 -42 17 -88 12 -46
28 -130 36 -188 20 -133 30 -461 17 -515 -7 -26 -10 -32 -11 -17 -3 66 -72
290 -135 439 -58 139 -173 337 -264 458 -88 117 -280 330 -220 245 10 -14 42
-65 72 -115 173 -289 292 -630 351 -1010 20 -123 31 -481 20 -630 l-9 -110
-12 140 c-15 162 -27 239 -55 350 -65 259 -183 489 -347 678 l-59 67 -6 198
c-4 108 -11 229 -17 267 -26 184 -30 160 42 254 34 45 69 93 77 105 16 23 -77
-61 -117 -106 -13 -16 -27 -28 -31 -28 -4 0 -13 25 -20 56 -22 98 -71 235
-122 343 -27 57 -51 102 -54 100 -2 -3 7 -59 20 -124 26 -130 45 -318 45 -440
l0 -76 -73 -82 c-39 -45 -88 -101 -108 -125 -28 -32 -41 -41 -55 -35 -16 6
-17 4 -7 -8 10 -13 10 -19 0 -33 -12 -16 -19 -6 -66 91 -53 109 -120 227 -126
221 -2 -2 11 -46 30 -99 53 -152 88 -308 74 -325 -10 -12 -21 4 -61 87 -26 56
-51 100 -53 97 -3 -3 1 -34 9 -69 9 -35 20 -96 26 -136 l11 -72 -49 -68 c-27
-37 -84 -121 -127 -186 l-77 -118 -31 42 -31 42 22 85 c12 47 35 112 52 145
16 33 28 62 26 64 -7 7 -87 -91 -123 -151 -20 -34 -37 -62 -39 -64 -1 -2 -21
16 -43 40 l-42 43 34 -58 35 -58 -33 -92 c-28 -78 -50 -178 -69 -312 -9 -62 6
237 19 397 71 822 300 1675 627 2328 48 96 86 176 84 177 -9 9 -301 -429 -393
-587 -211 -366 -372 -743 -488 -1145 -183 -635 -240 -1275 -173 -1954 10 -104
9 -124 -3 -131 -21 -13 -25 2 -43 145 -67 538 -74 1172 -20 1680 26 240 73
527 123 745 10 47 27 121 37 165 l18 80 116 115 c118 119 279 260 363 320 26
18 47 35 47 37 0 14 -242 -103 -372 -180 -43 -25 -78 -42 -78 -38 0 21 112
330 165 456 9 22 13 36 7 30 -24 -25 -170 -286 -245 -435 -45 -91 -87 -168
-93 -172 -6 -4 -58 -45 -115 -90 -211 -167 -483 -464 -643 -701 -32 -48 -62
-87 -65 -87 -4 0 -32 7 -63 15 -31 8 -93 17 -137 21 -59 5 -81 11 -81 21 0 22
127 357 207 543 205 479 580 1125 795 1370 129 147 -52 -17 -271 -245 -296
-307 -611 -745 -824 -1145 -62 -116 -177 -365 -209 -450 -27 -71 -34 -80 -69
-80 -36 0 -36 3 -4 190 73 414 199 853 350 1215 29 69 -6 21 -85 -115 -154
-267 -358 -715 -430 -945 -13 -38 -26 -73 -29 -78 -4 -4 -15 37 -25 90 -80
425 -271 972 -473 1353 -31 58 -63 119 -71 135 -15 31 -113 202 -139 243 -21
34 -27 20 -8 -18 30 -59 112 -283 163 -450 117 -383 200 -782 247 -1190 15
-131 35 -370 35 -415 0 -21 -5 -22 -117 -28 -83 -4 -121 -2 -129 6 -6 7 -24
48 -39 92 -33 93 -99 230 -116 241 -9 5 -10 2 -6 -10 11 -27 45 -206 53 -273
l7 -63 -79 -2 c-44 -1 -90 -2 -103 -2 -22 -1 -28 10 -66 119 -65 187 -151 366
-237 492 l-29 43 21 90 22 90 43 0 c127 0 284 42 305 81 16 30 11 67 -12 92
-29 31 -94 47 -192 47 -56 0 -76 3 -76 13 0 28 130 407 146 426 1 1 45 13 98
25 90 22 146 46 146 65 0 62 -566 121 -1305 136 -310 7 -404 15 -502 42 l-61
17 28 41 c46 67 82 145 67 145 -7 0 -66 -18 -131 -40 -65 -22 -120 -40 -124
-40 -3 0 16 14 41 31 94 62 178 191 207 316 l12 52 106 25 c227 54 498 90 822
111 129 8 309 19 400 25 172 10 250 25 295 54 33 21 29 36 -16 57 -95 45 -393
76 -1254 129 -269 17 -518 34 -551 38 l-62 7 45 128 c25 70 47 126 49 124 2
-1 11 -39 20 -82 9 -44 21 -84 25 -89 4 -5 13 10 20 33 10 35 14 39 22 25 9
-15 12 -13 28 17 14 27 18 30 19 13 1 -47 16 -31 40 42 l26 77 18 -97 c10 -53
21 -96 25 -96 4 0 17 31 30 70 12 38 26 72 30 74 4 3 13 -19 20 -49 15 -67 25
-75 41 -32 l13 32 6 -30 c8 -36 12 -30 41 60 l23 69 28 -143 c16 -79 30 -145
32 -147 2 -2 26 60 54 137 l50 142 18 -92 c9 -50 21 -88 26 -86 4 3 23 50 41
105 17 55 35 96 39 92 4 -4 21 -59 38 -123 17 -63 35 -126 40 -140 9 -23 9
-23 17 -4 11 31 95 247 106 275 13 33 18 22 54 -112z m-2131 -78 c3 -5 1 -10
-4 -10 -6 0 -11 5 -11 10 0 6 2 10 4 10 3 0 8 -4 11 -10z m785 -81 c0 -12 -7
-19 -20 -19 -17 0 -18 3 -8 25 12 27 28 24 28 -6z m13900 2 c0 -9 -4 -21 -10
-27 -5 -5 -6 -15 0 -24 7 -12 11 -10 19 10 5 14 10 20 10 13 1 -6 4 -20 7 -30
5 -15 4 -15 -5 -3 -6 9 -11 10 -11 3 0 -6 -13 -11 -29 -11 l-28 1 16 48 c15
46 31 56 31 20z m173 -51 c-3 -3 -8 1 -11 9 -4 11 -6 11 -13 0 -13 -22 -22 -2
-9 22 l13 22 12 -24 c8 -13 11 -26 8 -29z m107 -555 c0 -2 -7 -8 -15 -15 -12
-10 -15 -10 -15 2 0 8 7 15 15 15 8 0 15 -1 15 -2z m-11 -278 c8 -10 7 -14 -4
-14 -8 0 -15 6 -15 14 0 7 2 13 4 13 2 0 9 -6 15 -13z m-12195 -454 c-20 -38
-45 -81 -54 -98 -10 -16 -46 -85 -79 -152 l-62 -123 -235 0 c-259 0 -281 4
-341 62 -42 41 -45 84 -6 118 68 59 293 135 638 215 88 20 162 39 164 41 15
14 7 -4 -25 -63z m-315 -655 c-86 -212 -197 -559 -228 -710 l-12 -58 -50 0
c-27 0 -49 3 -49 8 0 88 73 571 113 742 l12 55 60 6 c33 3 86 6 117 7 l58 2
-21 -52z m-259 29 c0 -7 -14 -48 -31 -92 -77 -201 -149 -428 -194 -614 l-18
-74 -71 7 c-38 4 -72 9 -74 11 -3 3 14 25 37 50 66 72 109 178 55 136 -46 -36
-121 -52 -266 -58 -100 -4 -138 -3 -138 6 0 6 9 11 19 11 28 0 112 70 154 128
51 69 49 113 -2 58 -31 -33 -107 -64 -175 -72 -54 -7 -68 0 -46 22 5 5 18 35
29 67 24 68 21 69 -76 28 -65 -28 -68 -29 -71 -10 -4 24 22 107 44 137 10 14
26 22 44 22 74 0 140 52 140 110 0 26 60 53 175 80 78 19 269 46 370 53 28 2
60 4 73 5 12 1 22 -4 22 -11z m15033 -186 c69 -12 261 -75 285 -94 18 -15 75
-47 93 -53 15 -5 29 -60 44 -169 3 -22 7 -47 10 -55 5 -16 42 -315 43 -340 0
-8 5 -58 11 -110 6 -52 11 -137 13 -188 l2 -93 -54 -54 c-30 -30 -59 -55 -63
-55 -5 0 -15 -7 -24 -15 -8 -9 -17 -14 -20 -12 -3 4 -36 134 -47 187 -2 8 -6
22 -9 30 -4 8 -18 49 -33 90 -53 150 -133 279 -93 150 33 -105 57 -363 50
-529 l-1 -34 -37 51 c-21 27 -56 71 -77 97 -22 25 -40 54 -41 63 -1 9 -5 24
-8 32 -3 8 -17 56 -32 105 -45 152 -115 311 -200 451 l-42 71 18 79 c65 288
118 447 139 415 3 -5 36 -14 73 -20z m-14621 -188 c30 -103 71 -278 86 -375
l9 -58 -114 0 -113 0 0 27 c0 71 82 525 93 514 5 -5 22 -54 39 -108z m2588
-89 c-142 -409 -240 -933 -257 -1367 -5 -148 -8 -167 -22 -162 -9 4 -46 9 -83
12 -80 7 -74 -12 -53 186 30 269 76 533 131 743 13 53 23 98 21 100 -8 8 -143
-330 -188 -471 -54 -167 -91 -293 -124 -420 -20 -77 -40 -144 -46 -150 -5 -5
-9 -6 -9 -2 0 3 -11 2 -25 -3 -31 -12 -31 -20 1 142 90 465 290 923 584 1337
46 66 86 119 87 117 2 -1 -6 -29 -17 -62z m11845 -509 c26 -112 49 -239 64
-365 l11 -85 -41 -125 c-23 -69 -45 -129 -49 -134 -8 -8 -162 -48 -165 -43 -8
13 36 496 55 607 5 30 17 100 25 155 9 55 21 122 27 150 l11 50 19 -55 c10
-30 30 -100 43 -155z m-1255 -50 c21 -95 49 -299 50 -357 0 -25 -9 -19 -100
71 -115 115 -112 84 -33 288 27 67 51 116 54 110 4 -7 17 -57 29 -112z m-9212
-37 l-3 -23 -13 23 c-10 18 -10 26 0 45 l13 22 3 -22 c2 -13 2 -33 0 -45z
m-21 -94 l6 -66 -41 27 c-23 15 -42 31 -42 36 0 4 12 28 28 52 32 54 40 46 49
-49z m-12 -179 c-56 -356 -57 -360 -79 -250 -10 49 -28 125 -41 170 -13 44
-25 87 -27 96 -1 8 10 40 26 69 l29 54 49 -55 c40 -45 47 -59 43 -84z m-2223
38 c-72 -142 -229 -568 -257 -694 -5 -22 -13 -28 -41 -31 -29 -3 -34 -1 -34
18 0 51 98 537 139 691 l11 40 77 17 c43 10 89 21 103 25 14 5 26 5 28 0 2 -4
-10 -34 -26 -66z m11334 20 c49 -73 118 -199 156 -283 32 -73 33 -78 30 -192
l-3 -118 -44 0 c-24 0 -46 -4 -49 -8 -2 -4 -28 -5 -57 -2 l-53 5 -24 60 c-13
33 -37 89 -54 125 -29 61 -30 68 -19 119 19 93 84 321 91 321 4 0 16 -12 26
-27z m-2006 -402 c27 -156 26 -190 -15 -311 -40 -120 -89 -307 -115 -448 l-19
-97 3 275 c1 151 5 316 9 365 7 104 40 345 58 425 l12 55 24 -75 c13 -41 32
-126 43 -189z m1676 -78 c-18 -65 -36 -129 -39 -143 -5 -22 -11 -25 -52 -25
l-45 0 6 45 c15 115 54 360 65 410 l12 55 43 -112 44 -113 -34 -117z m-11890
16 c-8 -94 -17 -173 -20 -176 -3 -3 -31 12 -63 34 l-58 40 1 122 c2 139 3 142
99 207 l50 34 3 -44 c2 -25 -4 -122 -12 -217z m11689 204 c-15 -41 -57 -195
-76 -278 -10 -49 -21 -99 -24 -110 -2 -12 -13 -21 -26 -22 -12 -1 -25 -7 -29
-13 -16 -26 -18 20 -4 75 8 31 13 59 11 61 -2 2 -17 -28 -32 -66 -31 -76 -41
-88 -57 -72 -18 18 80 210 190 375 45 67 60 82 47 50z m-8307 -180 c78 -166
114 -292 132 -473 12 -109 2 -257 -23 -370 -12 -51 -13 -47 -9 72 7 194 -28
466 -82 638 -13 41 -13 33 -8 -110 5 -174 -7 -328 -44 -525 -26 -144 -70 -315
-84 -329 -10 -10 -140 12 -140 24 0 5 13 38 29 74 106 235 163 526 161 821 -2
259 -1 285 8 285 5 0 31 -48 60 -107z m5961 40 c16 -105 22 -188 13 -178 -5 6
-31 35 -59 65 -50 54 -51 56 -39 90 12 35 53 90 67 90 4 0 12 -30 18 -67z
m-4509 -66 c0 -198 -34 -471 -87 -687 l-28 -115 -6 135 c-7 128 -29 295 -49
368 -7 26 -4 47 16 98 43 116 128 274 147 274 4 0 7 -33 7 -73z m-2071 -92
c-5 -82 -12 -177 -17 -210 l-8 -60 -42 80 c-23 44 -42 84 -42 88 0 10 112 259
115 255 1 -2 -2 -70 -6 -153z m-320 18 c-13 -23 -24 -41 -26 -40 -1 2 1 35 4
75 l6 72 20 -32 19 -32 -23 -43z m5147 -102 c13 -52 31 -145 39 -206 l15 -113
-26 -73 c-44 -127 -91 -298 -119 -439 -15 -74 -29 -137 -32 -140 -3 -3 -3 135
0 305 6 332 26 546 74 780 l6 30 9 -25 c6 -14 21 -67 34 -119z m1713 39 l40
-75 -28 -92 c-16 -50 -35 -116 -42 -147 -7 -31 -15 -56 -19 -56 -4 0 -22 40
-39 90 l-32 90 25 140 c14 77 26 143 26 147 0 17 31 -27 69 -97z m590 -35 c0
-33 -2 -91 -6 -130 l-8 -70 -5 60 c-7 85 1 257 10 225 5 -14 8 -52 9 -85z
m2392 -8 c-10 -9 -11 -8 -5 6 3 10 9 15 12 12 3 -3 0 -11 -7 -18z m-3265 -247
c-58 -244 -78 -427 -78 -715 0 -185 14 -387 35 -509 1 -7 -26 -12 -69 -14
l-71 -3 -6 133 c-8 154 6 458 29 638 14 119 64 383 80 425 5 14 4 17 -3 10 -6
-5 -25 -48 -43 -95 -104 -273 -160 -493 -210 -830 -8 -54 -8 -41 -5 75 12 351
106 672 292 989 l47 79 13 -39 c12 -35 11 -49 -11 -144z m2411 148 c-3 -8 -6
-5 -6 6 -1 11 2 17 5 13 3 -3 4 -12 1 -19z m-1180 -245 c-5 -212 -29 -556 -42
-588 -8 -23 -4 448 5 550 13 147 32 285 38 285 3 0 2 -111 -1 -247z m887 172
c3 -8 1 -15 -4 -15 -6 0 -10 7 -10 15 0 8 2 15 4 15 2 0 6 -7 10 -15z m286 -3
c0 -5 -7 -9 -15 -9 -8 0 -12 4 -9 9 3 4 9 8 15 8 5 0 9 -4 9 -8z m-8767 -251
l26 -114 -25 -116 c-14 -63 -26 -116 -28 -118 -1 -1 -15 1 -32 6 -27 7 -29 11
-37 77 -13 111 -4 454 12 489 l14 30 22 -70 c13 -38 34 -121 48 -184z m8894
227 c-3 -8 -6 -5 -6 6 -1 11 2 17 5 13 3 -3 4 -12 1 -19z m-162 -28 c-4 -12
-9 -19 -12 -17 -3 3 -2 15 2 27 4 12 9 19 12 17 3 -3 2 -15 -2 -27z m112 8
c-3 -8 -6 -5 -6 6 -1 11 2 17 5 13 3 -3 4 -12 1 -19z m-6887 -193 c-11 -104
-59 -365 -79 -430 l-9 -30 -1 38 c-2 96 51 462 91 625 8 35 7 -117 -2 -203z
m1223 49 c-88 -145 -157 -323 -198 -511 l-23 -108 -1 114 -1 114 70 142 c61
125 181 325 195 325 2 0 -16 -34 -42 -76z m5509 -121 c-27 -118 -37 -171 -62
-338 -7 -46 -8 -28 -4 78 4 131 33 336 54 392 9 24 12 25 25 11 14 -14 13 -28
-13 -143z m-6375 105 c-3 -8 -6 -5 -6 6 -1 11 2 17 5 13 3 -3 4 -12 1 -19z
m6528 -22 c9 -3 20 -4 24 -1 5 2 11 -100 14 -228 6 -249 23 -406 63 -610 15
-71 24 -130 22 -132 -6 -7 -150 -36 -155 -32 -29 29 -41 874 -14 992 11 48 15
56 21 39 5 -12 16 -24 25 -28z m-3854 -562 c-6 -73 -16 -185 -23 -250 l-13
-119 -6 105 c-8 143 5 443 28 625 l18 150 3 -190 c2 -104 -2 -249 -7 -321z
m4117 475 c15 -9 17 -27 14 -152 -3 -125 6 -295 25 -467 4 -38 2 -52 -5 -45
-26 25 -80 675 -57 675 3 0 13 -5 23 -11z m266 -17 c3 -5 -1 -9 -9 -9 -8 0
-12 4 -9 9 3 4 7 8 9 8 2 0 6 -4 9 -8z m-2499 -164 c6 -41 2 -55 -31 -118 -20
-39 -38 -69 -40 -67 -2 1 3 45 11 97 7 52 17 129 21 170 l7 75 13 -55 c7 -30
16 -76 19 -102z m2485 95 c-1 -5 -7 -19 -15 -33 l-14 -25 -1 33 c0 22 5 32 15
32 8 0 15 -3 15 -7z m-2834 -471 c-4 -219 -16 -299 -28 -182 -11 111 -21 575
-13 606 7 23 12 5 26 -94 13 -93 17 -174 15 -330z m-3894 268 l-7 -135 -32 51
c-18 28 -33 55 -33 61 0 16 70 166 75 161 2 -2 1 -64 -3 -138z m707 -89 c-9
-114 -2 -282 17 -403 7 -40 -4 -48 -35 -29 -17 11 -31 172 -26 306 l3 90 -14
-55 c-17 -70 -34 -188 -35 -248 0 -26 -5 -56 -10 -67 -18 -39 -2 216 19 295
21 80 82 244 88 238 2 -2 -1 -59 -7 -127z m6165 -57 l15 -151 -24 -88 c-13
-48 -28 -92 -33 -97 -5 -5 -29 -10 -53 -11 l-44 -2 -7 55 c-8 62 7 130 75 349
30 96 43 128 49 115 4 -11 14 -87 22 -170z m467 144 c24 -12 48 -22 54 -23 5
0 12 -16 17 -36 8 -42 38 -282 35 -284 -4 -2 -267 -62 -267 -61 0 1 13 60 29
131 16 72 34 162 41 200 19 111 17 110 91 73z m-11057 -198 c9 -58 16 -112 16
-121 0 -11 -36 -28 -121 -58 -67 -23 -122 -41 -124 -39 -2 2 -6 59 -10 128
l-6 125 108 51 c91 43 109 48 114 35 4 -9 14 -63 23 -121z m3665 27 c30 -91
30 -93 18 -177 -11 -73 -16 -85 -34 -88 -24 -4 -30 23 -39 199 -7 116 -1 175
16 164 4 -3 22 -47 39 -98z m1240 -59 l0 -163 -30 90 -29 90 22 65 c22 69 27
80 34 80 2 0 4 -73 3 -162z m4478 140 c-3 -8 -6 -5 -6 6 -1 11 2 17 5 13 3 -3
4 -12 1 -19z m-4003 -258 c13 -80 27 -175 31 -212 l7 -68 -28 0 c-16 0 -53 3
-82 7 -51 6 -54 7 -49 32 43 244 57 331 63 406 l8 90 13 -55 c7 -30 23 -120
37 -200z m-2951 113 c6 -30 4 -33 -18 -33 -34 0 -38 13 -18 55 18 38 26 34 36
-22z m5591 -45 c22 -214 19 -281 -16 -395 l-10 -33 -73 0 -74 0 25 93 c32 123
125 397 134 397 4 0 10 -28 14 -62z m-4070 -128 c6 -48 4 -60 -7 -60 -23 0
-36 102 -20 160 7 24 7 24 14 -7 3 -18 9 -60 13 -93z m885 -77 c1 -80 0 -83
-21 -83 -46 0 -48 9 -28 110 10 52 22 109 26 125 8 29 9 28 15 -20 4 -27 8
-87 8 -132z m195 -60 c5 -41 4 -43 -21 -43 l-26 0 7 77 c3 42 7 106 7 142 l1
66 14 -100 c7 -55 15 -119 18 -142z m-1507 140 c-3 -10 -5 -4 -5 12 0 17 2 24
5 18 2 -7 2 -21 0 -30z m5669 -133 c15 -69 29 -135 32 -147 4 -23 3 -23 -93
-23 -88 0 -97 2 -92 18 3 9 28 79 56 154 28 75 51 145 52 155 1 28 14 -17 45
-157z m-10561 -115 c11 -40 10 -44 -9 -49 -26 -7 -96 -6 -78 1 6 2 12 9 12 14
0 16 51 91 58 84 3 -3 11 -26 17 -50z m9001 0 c6 -42 1 -66 -11 -53 -11 11
-17 98 -7 98 6 0 14 -20 18 -45z m1825 -37 c8 -14 6 -18 -9 -18 -19 0 -32 25
-32 60 1 16 21 -5 41 -42z m-1172 -10 c1 -5 -6 -8 -15 -8 -11 0 -14 5 -10 16
3 9 6 21 7 27 0 12 17 -20 18 -35z"/>
<path d="M18858 7053 c7 -3 16 -2 19 1 4 3 -2 6 -13 5 -11 0 -14 -3 -6 -6z"/>
<path d="M18 15993 c-12 -3 -18 -14 -18 -36 l0 -31 25 34 c32 44 33 44 -7 33z"/>
<path d="M2 15448 c1 -133 1 -133 9 -48 10 124 10 180 -1 180 -6 0 -9 -50 -8
-132z"/>
<path d="M445 15480 c-75 -85 -304 -190 -412 -190 l-33 0 0 -321 0 -322 62 7
c125 15 224 73 304 179 48 64 109 175 101 184 -3 2 -38 -7 -79 -22 -72 -27
-256 -85 -266 -85 -3 0 21 18 54 39 82 55 126 97 173 165 67 97 128 284 119
360 l-3 28 -20 -22z"/>
<path d="M260 14630 c-30 -5 -101 -8 -157 -9 l-103 -1 0 -65 0 -66 37 7 c106
18 256 85 293 130 14 16 17 16 -70 4z"/>
<path d="M615 14387 c-131 -46 -239 -60 -400 -53 -77 4 -157 9 -177 12 l-38 6
0 -189 0 -190 75 -22 c92 -26 210 -42 258 -34 49 8 39 19 -24 27 -28 4 -70 16
-93 27 -41 19 -124 94 -115 103 3 3 41 -4 84 -16 114 -30 285 -30 375 1 62 21
170 85 170 101 0 4 -24 -1 -52 -11 -52 -18 -197 -26 -211 -13 -4 4 17 24 46
45 30 20 69 57 88 81 51 63 101 138 97 146 -2 4 -39 -5 -83 -21z"/>
</g>
</svg>
