<svg xmlns="http://www.w3.org/2000/svg" version="1.1" xmlns:xlink="http://www.w3.org/1999/xlink" xmlns:svgjs="http://svgjs.dev/svgjs" width="2000" height="1250" viewBox="0 0 2000 1250"><g transform="matrix(1,0,0,1,0,0)"><svg viewBox="0 0 512 320" data-background-color="#77d4fc" preserveAspectRatio="xMidYMid meet" height="1250" width="2000" xmlns="http://www.w3.org/2000/svg" xmlns:xlink="http://www.w3.org/1999/xlink"><g id="tight-bounds" transform="matrix(1,0,0,1,0,0)"><svg viewBox="0 0 512 320" height="320" width="512"><g><svg></svg></g><g><svg viewBox="0 0 512 320" height="320" width="512"><g><path transform="translate(256,160) scale(160,160)" d="M-1 0c0-0.552 0.448-1 1-1 0.552 0 1 0.448 1 1 0 0.552-0.448 1-1 1-0.552 0-1-0.448-1-1z" fill="#0080ff" fill-rule="nonzero" stroke="none" stroke-width="1" stroke-linecap="butt" stroke-linejoin="miter" stroke-miterlimit="10" stroke-dasharray="" stroke-dashoffset="0" font-family="none" font-weight="none" font-size="none" text-anchor="none" style="mix-blend-mode: normal" data-fill-palette-color="tertiary"></path></g><g transform="matrix(1,0,0,1,153.6,128.60307811595916)"><svg viewBox="0 0 204.8 62.79384376808167" height="62.79384376808167" width="204.8"><g><svg viewBox="0 0 271.3357179676391 83.19439786504003" height="62.79384376808167" width="204.8"><g transform="matrix(1,0,0,1,66.5357179676391,11.497923293938243)"><svg viewBox="0 0 204.8 60.198551277163546" height="60.198551277163546" width="204.8"><g id="textblocktransform"><svg viewBox="0 0 204.8 60.198551277163546" height="60.198551277163546" width="204.8" id="textblock"><g><svg viewBox="0 0 204.8 60.198551277163546" height="60.198551277163546" width="204.8"><g transform="matrix(1,0,0,1,0,0)"><svg width="204.8" viewBox="1.35 -37.5 131.14000000000001 38.55" height="60.198551277163546" data-palette-color="#fdfdfd"><path d="M7.6-28.55L7.6-28.55Q7.6-32.4 10.93-34.95 14.25-37.5 19.15-37.5L19.15-37.5Q22.95-37.5 25.08-35.95 27.2-34.4 27.2-31.5L27.2-31.5Q27.2-29.25 26.08-27.85 24.95-26.45 23.1-26.45L23.1-26.45Q22.4-26.45 21.83-26.7 21.25-26.95 20.8-27.5L20.8-27.5Q21.8-28.1 22.43-29.3 23.05-30.5 23.05-31.8L23.05-31.8Q23.05-33.4 22.1-34.27 21.15-35.15 19.35-35.15L19.35-35.15Q17.2-35.15 15.98-33.95 14.75-32.75 14.75-30.6L14.75-30.6Q14.75-28.85 15.65-27.28 16.55-25.7 19.55-23.05L19.55-23.05Q23.5-19.6 24.75-17.07 26-14.55 26-11.45L26-11.45Q26-5.75 22.05-2.35 18.1 1.05 11.95 1.05L11.95 1.05Q7.05 1.05 4.2-1.2 1.35-3.45 1.35-7.55L1.35-7.55Q1.35-11.15 3.5-13.45 5.65-15.75 8.7-15.75L8.7-15.75Q10.6-15.75 11.8-14.88 13-14 13.1-12.45L13.1-12.45Q10.5-12.45 8.88-11.2 7.25-9.95 7.25-7.75L7.25-7.75Q7.25-5.65 8.55-4.3 9.85-2.95 12.05-2.95L12.05-2.95Q14.65-2.95 16.25-4.75 17.85-6.55 17.85-9.6L17.85-9.6Q17.85-11.95 16.8-14.1 15.75-16.25 12.45-19.85L12.45-19.85Q9.45-23.05 8.53-24.88 7.6-26.7 7.6-28.55ZM46.85-20.65L46.85-20.65Q46.85-16.5 43.45-13.43 40.05-10.35 35.35-10.1L35.35-10.1Q35.3-9.25 35.27-8.83 35.25-8.4 35.25-8.1L35.25-8.1Q35.25-5.8 36.02-4.85 36.8-3.9 38.85-3.9L38.85-3.9Q41.2-3.9 43.17-4.98 45.15-6.05 47.7-8.95L47.7-8.95 49.4-8.95Q46.5-4.25 43.1-1.98 39.7 0.3 35.65 0.3L35.65 0.3Q31.8 0.3 29.82-1.7 27.85-3.7 27.85-7.65L27.85-7.65Q27.85-10.5 28.75-13.7 29.65-16.9 31.15-19.4L31.15-19.4Q33-22.4 35.57-23.93 38.15-25.45 41.35-25.45L41.35-25.45Q44.1-25.45 45.47-24.28 46.85-23.1 46.85-20.65ZM41.75-22.8L41.75-22.8Q40.05-22.8 38.32-19.78 36.6-16.75 35.75-12.5L35.75-12.5Q38.65-12.7 40.82-15.18 43-17.65 43-20.75L43-20.75Q43-21.8 42.7-22.3 42.4-22.8 41.75-22.8ZM57.05-19L53.05 0 45.85 0 51.15-25 58.35-25 57.7-21.9Q59.9-23.75 61.17-24.38 62.45-25 63.75-25L63.75-25Q65.3-25 66.25-23.93 67.2-22.85 67.2-21.25L67.2-21.25Q67.2-19.7 66.2-18.65 65.2-17.6 63.6-17.6L63.6-17.6Q62.75-17.6 62.27-18 61.8-18.4 61.6-19.65L61.6-19.65Q61.45-20.45 61.25-20.68 61.05-20.9 60.7-20.9L60.7-20.9Q59.85-20.9 59.1-20.55 58.35-20.2 57.05-19L57.05-19ZM84.79-20.65L84.79-20.65Q84.79-16.5 81.39-13.43 77.99-10.35 73.29-10.1L73.29-10.1Q73.24-9.25 73.22-8.83 73.19-8.4 73.19-8.1L73.19-8.1Q73.19-5.8 73.97-4.85 74.74-3.9 76.79-3.9L76.79-3.9Q79.14-3.9 81.12-4.98 83.09-6.05 85.64-8.95L85.64-8.95 87.34-8.95Q84.44-4.25 81.04-1.98 77.64 0.3 73.59 0.3L73.59 0.3Q69.74 0.3 67.77-1.7 65.79-3.7 65.79-7.65L65.79-7.65Q65.79-10.5 66.69-13.7 67.59-16.9 69.09-19.4L69.09-19.4Q70.94-22.4 73.52-23.93 76.09-25.45 79.29-25.45L79.29-25.45Q82.04-25.45 83.42-24.28 84.79-23.1 84.79-20.65ZM79.69-22.8L79.69-22.8Q77.99-22.8 76.27-19.78 74.54-16.75 73.69-12.5L73.69-12.5Q76.59-12.7 78.77-15.18 80.94-17.65 80.94-20.75L80.94-20.75Q80.94-21.8 80.64-22.3 80.34-22.8 79.69-22.8ZM98.04-5.35L98.04-5.35Q98.04-6.25 98.27-7.6 98.49-8.95 99.19-11.9L99.19-11.9Q99.89-14.75 100.09-16 100.29-17.25 100.29-18.1L100.29-18.1Q100.29-19.35 99.84-20 99.39-20.65 98.49-20.65L98.49-20.65Q97.29-20.65 96.27-19.43 95.24-18.2 94.59-16.05L94.59-16.05 91.19 0 83.99 0 89.29-25 96.49-25 95.94-22.4Q97.19-23.8 98.64-24.5 100.09-25.2 101.79-25.2L101.79-25.2Q104.44-25.2 105.89-23.75 107.34-22.3 107.34-19.55L107.34-19.55Q107.34-18.4 107.07-16.82 106.79-15.25 105.99-12L105.99-12Q105.34-9.45 105.14-8.4 104.94-7.35 104.94-6.65L104.94-6.65Q104.94-5.6 105.44-5.08 105.94-4.55 106.94-4.55L106.94-4.55Q108.19-4.55 109.09-5.4 109.99-6.25 111.14-8.95L111.14-8.95 113.24-8.95Q111.64-4.3 109.37-2 107.09 0.3 103.94 0.3L103.94 0.3Q101.14 0.3 99.59-1.23 98.04-2.75 98.04-5.35ZM129.94-20.65L129.94-20.65Q129.94-16.5 126.54-13.43 123.14-10.35 118.44-10.1L118.44-10.1Q118.39-9.25 118.36-8.83 118.34-8.4 118.34-8.1L118.34-8.1Q118.34-5.8 119.11-4.85 119.89-3.9 121.94-3.9L121.94-3.9Q124.29-3.9 126.26-4.98 128.24-6.05 130.79-8.95L130.79-8.95 132.49-8.95Q129.59-4.25 126.19-1.98 122.79 0.3 118.74 0.3L118.74 0.3Q114.89 0.3 112.91-1.7 110.94-3.7 110.94-7.65L110.94-7.65Q110.94-10.5 111.84-13.7 112.74-16.9 114.24-19.4L114.24-19.4Q116.09-22.4 118.66-23.93 121.24-25.45 124.44-25.45L124.44-25.45Q127.19-25.45 128.56-24.28 129.94-23.1 129.94-20.65ZM124.84-22.8L124.84-22.8Q123.14-22.8 121.41-19.78 119.69-16.75 118.84-12.5L118.84-12.5Q121.74-12.7 123.91-15.18 126.09-17.65 126.09-20.75L126.09-20.75Q126.09-21.8 125.79-22.3 125.49-22.8 124.84-22.8Z" opacity="1" transform="matrix(1,0,0,1,0,0)" fill="#fdfdfd" class="wordmark-text-0" data-fill-palette-color="quaternary" id="text-0"></path></svg></g></svg></g></svg></g></svg></g><g><svg viewBox="0 0 52.32428477633144 83.19439786504003" height="83.19439786504003" width="52.32428477633144"><g><svg xmlns="http://www.w3.org/2000/svg" xmlns:xlink="http://www.w3.org/1999/xlink" version="1.1" x="0" y="0" viewBox="0 0 62.894000220078716 100" enable-background="new 0 0 62.895 100" xml:space="preserve" width="52.32428477633144" height="83.19439786504003" class="icon-icon-0" data-fill-palette-color="quaternary" id="icon-0"><path fill="#fdfdfd" d="M55.303 0H7.591C3.406 0 0 3.403 0 7.589v84.822C0 96.597 3.406 100 7.591 100h47.711c4.186 0 7.592-3.403 7.592-7.589V7.589C62.895 3.403 59.488 0 55.303 0zM58.317 92.411c0 1.66-1.352 3.012-3.015 3.012H7.591c-1.663 0-3.015-1.352-3.015-3.012v-3.015h53.741V92.411zM58.317 84.819H4.577V15.181h53.741V84.819zM58.317 10.604H4.577V7.589c0-1.661 1.352-3.013 3.015-3.013h47.711c1.663 0 3.015 1.352 3.015 3.013V10.604z" data-fill-palette-color="quaternary"></path><path fill="#fdfdfd" d="M20.2 56.813c-0.085 0.477-0.143 0.964-0.143 1.464 0 4.541 3.696 8.235 8.237 8.235h8.057 9.518c5.35 0 9.703-4.352 9.703-9.699 0-5.352-4.354-9.705-9.703-9.705-0.103 0-0.203 0.002-0.307 0.004-2.201-2.731-5.546-4.398-9.211-4.398-0.311 0-0.61 0.049-0.917 0.074-2.354-3.784-6.914-5.761-11.332-4.724-2.749 0.637-5.082 2.306-6.572 4.7-1.491 2.393-1.96 5.225-1.321 7.971C16.785 53.214 18.207 55.339 20.2 56.813zM36.351 47.292c3.267 0 6.005 2.159 6.943 5.109 0.762-0.442 1.633-0.716 2.574-0.716 2.831 0 5.126 2.298 5.126 5.129 0 2.827-2.295 5.122-5.126 5.122-1.766 0-7.441 0-9.518 0-1.878 0-6.68 0-8.057 0-2.02 0-3.66-1.638-3.66-3.658 0-2.024 1.64-3.663 3.66-3.663 0.255 0 0.503 0.025 0.742 0.076 0-0.028-0.009-0.051-0.009-0.076C29.027 50.572 32.305 47.292 36.351 47.292zM21.413 45.184c0.845-1.356 2.166-2.302 3.723-2.664 2.072-0.483 4.186 0.179 5.609 1.616-2.599 1.396-4.633 3.718-5.625 6.539-1.059 0.442-1.998 1.11-2.78 1.929-0.809-0.787-1.41-1.77-1.676-2.905C20.303 48.143 20.568 46.539 21.413 45.184z" data-fill-palette-color="quaternary"></path><path fill="#fdfdfd" d="M9.509 45.575l2.968 0.9c0.221 0.067 0.445 0.099 0.664 0.099 0.983 0 1.891-0.637 2.19-1.625 0.366-1.209-0.315-2.487-1.526-2.854l-2.968-0.9c-1.211-0.369-2.487 0.319-2.854 1.526C7.616 43.931 8.298 45.208 9.509 45.575z" data-fill-palette-color="quaternary"></path><path fill="#fdfdfd" d="M36.684 41.099c0.561 0 1.124-0.206 1.564-0.619l2.264-2.121c0.923-0.863 0.97-2.311 0.104-3.234-0.862-0.92-2.312-0.968-3.233-0.105l-2.264 2.121c-0.923 0.863-0.97 2.311-0.105 3.234C35.463 40.855 36.073 41.099 36.684 41.099z" data-fill-palette-color="quaternary"></path><path fill="#fdfdfd" d="M14.738 56.21l-2.262 2.121c-0.923 0.865-0.97 2.313-0.105 3.233 0.451 0.48 1.059 0.725 1.669 0.725 0.561 0 1.124-0.206 1.564-0.619l2.262-2.121c0.923-0.864 0.97-2.312 0.105-3.233S15.657 55.348 14.738 56.21z" data-fill-palette-color="quaternary"></path><path fill="#fdfdfd" d="M21.103 35.271c0.244 1.057 1.187 1.77 2.226 1.77 0.172 0 0.346-0.018 0.521-0.06 1.231-0.284 1.996-1.515 1.709-2.747l-0.702-3.021c-0.284-1.231-1.515-2.007-2.747-1.709-1.231 0.284-1.996 1.515-1.709 2.747L21.103 35.271z" data-fill-palette-color="quaternary"></path></svg></g></svg></g></svg></g></svg></g></svg></g><defs></defs></svg><rect width="512" height="320" fill="none" stroke="none" visibility="hidden"></rect></g></svg></g></svg>